Coordinates
version=1
nRows=13
nColumns=34
inDegrees=yes

Units are S.I. units (second, meters, Newtons, ...)
If the header above contains a line with 'inDegrees', this indicates whether rotational values are in degrees (yes) or radians (no).

endheader
time	pelvis_tilt	pelvis_list	pelvis_rotation	pelvis_tx	pelvis_ty	pelvis_tz	hip_flexion_r	hip_adduction_r	hip_rotation_r	knee_angle_r	ankle_angle_r	subtalar_angle_r	mtp_angle_r	hip_flexion_l	hip_adduction_l	hip_rotation_l	knee_angle_l	ankle_angle_l	subtalar_angle_l	mtp_angle_l	lumbar_extension	lumbar_bending	lumbar_rotation	arm_flex_r	arm_add_r	arm_rot_r	elbow_flex_r	pro_sup_r	arm_flex_l	arm_add_l	arm_rot_l	elbow_flex_l	pro_sup_l
      1.63333330	     -8.82531741	      2.87335718	      0.63260296	     -0.08206199	      1.30335704	     -0.06960665	      6.68654098	     -2.21401038	      2.70574602	      0.00000000	      8.53665522	     -6.54059375	      0.00000000	      7.01192504	      1.36365596	     -3.12820231	      0.00000000	      6.32728358	      2.47018900	      0.00000000	      3.57594943	      2.38112193	     -0.78004918	     -7.64491756	     -7.78100959	     -4.71303887	     22.35417120	     88.34312902	     -9.07576318	     -5.78435761	    -12.45160664	     22.81516012	     95.45125362
      1.65000000	     -8.85374454	      2.85999167	      0.58377789	     -0.08048121	      1.30601099	     -0.06888939	      6.68677594	     -2.13097391	      2.68712519	      0.00000000	      8.52525891	     -6.55040375	      0.00000000	      7.00079039	      1.28909687	     -3.06184918	      0.00000000	      6.25994539	      2.49851693	      0.00000000	      3.60798087	      2.14666433	     -0.74562732	     -7.53295248	     -7.77905426	     -4.75455046	     22.42007265	     88.33727034	     -9.00589891	     -5.59237217	    -12.44278327	     22.81101063	     95.45293569
      1.66666670	     -8.88677156	      2.84268211	      0.51487136	     -0.08110596	      1.30594697	     -0.06761931	      6.71042100	     -2.02469706	      2.63492852	      0.00000000	      8.54783093	     -6.58680671	      0.00000000	      7.00861120	      1.21004878	     -2.99160682	      0.00000000	      6.20705495	      2.53259448	      0.00000000	      3.66608356	      1.89416119	     -0.65283614	     -7.24618389	     -7.68562604	     -4.77904432	     22.55097751	     88.33345202	     -8.86625211	     -5.30725112	    -12.40984712	     22.82862534	     95.45827143
      1.68333330	     -9.06402549	      2.89053155	      0.44692823	     -0.08243841	      1.31032056	     -0.06602832	      6.93056485	     -1.98412212	      2.64477719	      0.00000000	      8.46734958	     -6.56212408	      0.00000000	      7.22076097	      1.18888215	     -2.85436453	      0.00000000	      5.99575592	      2.61129963	      0.00000000	      3.39368280	      1.63081787	     -0.59990852	     -6.62032366	     -7.34425166	     -4.88202800	     22.86002665	     88.31658419	     -8.31037743	     -4.96969831	    -12.36153155	     22.82846679	     95.47363638
      1.70000000	     -9.10501468	      2.88271297	      0.36539367	     -0.08331999	      1.30780904	     -0.06476479	      7.00118392	     -1.88107499	      2.60145419	      0.00000000	      8.42289389	     -6.57303372	      0.00000000	      7.25714383	      1.11754427	     -2.80333320	      0.00000000	      5.92485429	      2.63578441	      0.00000000	      3.44986421	      1.39143616	     -0.52881357	     -6.02207724	     -7.05962926	     -4.91182475	     23.12562177	     88.31123643	     -7.83513558	     -4.71649109	    -12.28610338	     22.89243821	     95.49074363
      1.71666670	     -9.18846316	      2.86736726	      0.31819789	     -0.08437659	      1.30823436	     -0.06499546	      7.18108276	     -1.80178547	      2.59284964	      0.00000000	      8.32393635	     -6.51825766	      0.00000000	      7.41236989	      1.03328251	     -2.76696191	      0.00000000	      5.80750332	      2.67917488	      0.00000000	      3.41507778	      1.08351454	     -0.53045822	     -5.31624969	     -6.75502371	     -4.92964403	     23.43377190	     88.30780998	     -7.15765652	     -4.44423365	    -12.16873039	     23.00753284	     95.51558164
      1.73333330	     -8.77195287	      2.82666099	      0.40372934	     -0.08590778	      1.30609001	     -0.06349317	      6.79166265	     -1.70218482	      2.55444527	      0.00000000	      8.12855367	     -6.55910548	      0.00000000	      7.05706973	      0.94796486	     -2.53241975	      0.00000000	      5.58087706	      2.45550489	      0.00000000	      2.25785612	      0.71910916	     -0.68665602	     -4.57116788	     -6.40486428	     -5.65716977	     24.81966946	     88.23031102	     -5.90579825	     -4.61483505	    -10.36121581	     22.54028901	     95.95908664
      1.75000000	     -8.94364036	      2.82760002	      0.38857686	     -0.08638009	      1.30385064	     -0.06265714	      7.02446768	     -1.61856878	      2.59392417	      0.00000000	      7.97829815	     -6.41435687	      0.00000000	      7.28873040	      0.88274418	     -2.52401492	      0.00000000	      5.52571472	      2.50097582	      0.00000000	      2.38424396	      0.30200289	     -0.64736180	     -3.91174116	     -6.04120573	     -5.64429238	     25.13303058	     88.23953723	     -5.03211828	     -4.51336601	    -10.13818699	     22.88097416	     95.99820470
      1.76666670	     -9.06026394	      2.82448484	      0.42126779	     -0.08499135	      1.30419203	     -0.06112057	      7.19991229	     -1.53037363	      2.68017069	      0.00000000	      7.85512330	     -6.26190302	      0.00000000	      7.46191346	      0.79169057	     -2.46593021	      0.00000000	      5.42066186	      2.55363049	      0.00000000	      2.47600856	     -0.14952172	     -0.67876047	     -3.29715014	     -5.60225077	     -5.59614324	     25.52955340	     88.25693931	     -4.15695970	     -4.55359004	     -9.81415122	     23.32191917	     96.05888255
      1.78333330	     -8.78885064	      2.82127168	      0.37762821	     -0.08485700	      1.30589852	     -0.05993674	      6.95756469	     -1.49377903	      2.37268595	      0.00000000	      8.06739485	     -5.83302595	      0.00000000	      7.13088141	      0.71015876	     -2.49440323	      0.00000000	      5.22718483	      2.47108725	      0.00000000	      1.85915427	     -0.52588197	     -0.42893198	     -3.04713047	     -5.32628059	     -5.43322370	     27.61065477	     88.44639615	     -3.58459837	     -5.29168392	     -5.92809182	     25.78392796	     96.77199948
      1.80000000	     -8.92972857	      2.79496859	      0.29621199	     -0.08687304	      1.30546443	     -0.06003059	      7.21897958	     -1.45841332	      2.32101778	      0.00000000	      8.12847697	     -5.83591942	      0.00000000	      7.33419019	      0.61063710	     -2.48468032	      0.00000000	      5.28536147	      2.47492618	      0.00000000	      2.05396541	     -0.80802359	     -0.44479247	     -2.21613270	     -4.91797613	     -5.35689048	     27.92382917	     88.46836503	     -2.58216890	     -5.20902046	     -5.73965887	     26.12774154	     96.78769040
      1.81666670	     -9.05797610	      2.77851449	      0.22834630	     -0.08833542	      1.30371894	     -0.06062420	      7.45011568	     -1.45610855	      2.23542790	      0.00000000	      8.23975934	     -5.84980016	      0.00000000	      7.52494365	      0.54118913	     -2.48884345	      0.00000000	      5.37671373	      2.45919608	      0.00000000	      2.19329747	     -1.13429831	     -0.42431694	     -1.36775621	     -4.57200715	     -5.24314518	     28.31999267	     88.50133066	     -1.56512039	     -5.20736841	     -5.48841553	     26.63561550	     96.81616671
      1.83333330	     -8.89297655	      2.78309373	      0.17245117	     -0.08833726	      1.30297023	     -0.05892987	      7.38174722	     -1.47676701	      1.98302501	      0.00000000	      8.60021127	     -5.42688742	      0.00000000	      7.38616707	      0.49427304	     -2.49370264	      0.00000000	      5.43238422	      2.45587829	      0.00000000	      1.62918564	     -1.51780432	     -0.05543071	     -1.05422947	     -4.55761886	     -4.31306525	     30.37782576	     88.88206055	     -1.16405511	     -5.99900508	     -2.19131693	     30.03615985	     97.21870515
